<svg width="134" height="39" viewBox="0 0 134 39" fill="none" xmlns="http://www.w3.org/2000/svg">
<g clip-path="url(#clip0_14_14)">
<path d="M38.61 19.25C38.61 21.5 38.23 23.72 37.47 25.93C36.71 28.14 35.53 30.13 33.93 31.9C32.33 33.67 30.29 35.1 27.82 36.18C25.34 37.26 22.41 37.81 19.02 37.81H7.31C6.32 37.81 5.17 37.84 3.85 37.9C2.54 37.96 1.29 38.02 0.11 38.1C0.03 37.95 0 37.78 0 37.59V37.13C0 36.71 0.07 36.44 0.2 36.3C0.33 36.17 0.49 36.08 0.69 36.04C1.79 35.85 2.68 35.59 3.35 35.27C4.02 34.95 4.35 34.39 4.35 33.59V4.96999C4.35 4.20999 4.07 3.66999 3.52 3.33999C2.97 3.01999 2.02 2.73999 0.69 2.50999C0.38 2.42999 0.19 2.30999 0.12 2.13999C0.04 1.96999 0.01 1.72999 0.01 1.42999V0.969994C0.01 0.779994 0.05 0.589994 0.12 0.399994C0.92 0.479994 1.63 0.519994 2.26 0.539994C2.89 0.559994 3.47 0.589994 4 0.619994C4.53 0.659994 5.07 0.679994 5.6 0.679994H18.85C22.09 0.679994 24.93 1.17999 27.39 2.15999C29.85 3.14999 31.9 4.47999 33.56 6.15999C35.22 7.83999 36.47 9.79999 37.33 12.04C38.19 14.29 38.62 16.69 38.62 19.24L38.61 19.25ZM30.73 20.33C30.73 17.36 30.39 14.81 29.7 12.68C29.01 10.55 28.01 8.80999 26.7 7.44999C25.39 6.09999 23.75 5.10999 21.79 4.47999C19.83 3.84999 17.59 3.53999 15.08 3.53999H11.54V32.9C11.54 33.28 11.6 33.61 11.71 33.87C11.82 34.14 12.05 34.35 12.4 34.5C12.75 34.65 13.22 34.77 13.83 34.84C14.44 34.91 15.26 34.95 16.29 34.95C21.24 34.95 24.89 33.64 27.23 31.01C29.57 28.38 30.74 24.82 30.74 20.33H30.73Z" fill="url(#paint0_linear_14_14)"/>
<path d="M52.54 33.58C52.54 33.96 52.57 34.28 52.62 34.52C52.68 34.77 52.83 34.99 53.08 35.18C53.33 35.37 53.69 35.53 54.16 35.67C54.64 35.8 55.27 35.93 56.07 36.04C56.45 36.12 56.64 36.44 56.64 37.01C56.64 37.12 56.63 37.3 56.61 37.52C56.59 37.75 56.56 37.94 56.53 38.09C55.31 38.01 54.01 37.95 52.62 37.89C51.23 37.83 50 37.8 48.94 37.8C47.88 37.8 46.6 37.83 45.23 37.89C43.86 37.95 42.56 38.01 41.35 38.09C41.27 37.94 41.24 37.75 41.24 37.52V37.01C41.24 36.4 41.43 36.08 41.81 36.04C42.61 35.93 43.25 35.8 43.72 35.67C44.2 35.54 44.55 35.38 44.78 35.18C45.01 34.98 45.16 34.77 45.24 34.52C45.32 34.27 45.35 33.96 45.35 33.58V4.96999C45.35 4.58999 45.31 4.27999 45.24 4.02999C45.16 3.77999 45.01 3.55999 44.78 3.36999C44.55 3.17999 44.2 3.01999 43.72 2.87999C43.24 2.74999 42.61 2.61999 41.81 2.50999C41.43 2.39999 41.24 2.06999 41.24 1.53999V1.02999C41.24 0.799994 41.28 0.589994 41.35 0.399994C42.57 0.479994 43.86 0.539994 45.23 0.599994C46.6 0.659994 47.84 0.689994 48.94 0.689994C50.04 0.689994 51.23 0.659994 52.62 0.599994C54.01 0.539994 55.31 0.479994 56.53 0.399994C56.57 0.589994 56.6 0.799994 56.61 1.02999C56.63 1.25999 56.64 1.42999 56.64 1.53999C56.64 2.06999 56.45 2.39999 56.07 2.50999C55.27 2.61999 54.63 2.74999 54.16 2.87999C53.68 3.00999 53.32 3.16999 53.08 3.36999C52.83 3.55999 52.68 3.77999 52.62 4.02999C52.56 4.27999 52.54 4.58999 52.54 4.96999V33.59V33.58Z" fill="url(#paint1_linear_14_14)"/>
<path d="M82.64 25.25H70.64L67.67 33.19C67.56 33.38 67.48 33.59 67.44 33.82C67.4 34.05 67.38 34.22 67.38 34.33C67.38 34.75 67.58 35.09 67.98 35.36C68.38 35.63 69.19 35.86 70.41 36.05C70.94 36.13 71.21 36.49 71.21 37.13C71.21 37.4 71.17 37.72 71.1 38.1C70.07 38.02 68.99 37.96 67.85 37.9C66.71 37.84 65.58 37.81 64.48 37.81C63.72 37.81 62.92 37.83 62.08 37.87C61.24 37.91 60.31 37.98 59.28 38.1C59.2 37.95 59.17 37.78 59.17 37.59V37.13C59.17 36.41 59.42 36.03 59.91 35.99C61.09 35.76 61.94 35.51 62.45 35.25C62.96 34.98 63.37 34.53 63.68 33.88L77.45 0.97C77.75 0.32 78.21 0 78.82 0C79.01 0 79.2 0 79.39 0.03C79.58 0.05 79.79 0.08 80.02 0.12L93.78 34.05C94.01 34.62 94.45 35.05 95.09 35.34C95.74 35.63 96.44 35.83 97.2 35.94C97.77 36.05 98.06 36.44 98.06 37.08C98.06 37.38 98.02 37.73 97.95 38.11C96.73 38.03 95.53 37.97 94.35 37.91C93.17 37.85 92.07 37.82 91.04 37.82C90.51 37.82 89.86 37.82 89.1 37.85C88.34 37.87 87.56 37.9 86.76 37.94C85.96 37.98 85.17 38.01 84.39 38.03C83.61 38.05 82.95 38.08 82.42 38.11C82.34 37.96 82.31 37.79 82.31 37.6V37.14C82.31 36.8 82.38 36.54 82.51 36.37C82.64 36.2 82.79 36.09 82.94 36.06C83.93 35.87 84.66 35.65 85.14 35.4C85.62 35.15 85.85 34.78 85.85 34.29C85.85 34.06 85.79 33.78 85.68 33.43L82.65 25.26L82.64 25.25ZM81.56 22.39L76.71 9.54L71.74 22.39H81.56Z" fill="url(#paint2_linear_14_14)"/>
<path d="M110.29 34.96H121.83C122.97 34.96 123.93 34.83 124.71 34.56C125.49 34.29 126.15 33.89 126.68 33.36C127.21 32.83 127.68 32.16 128.08 31.36C128.48 30.56 128.87 29.61 129.25 28.5C129.33 28.2 129.47 27.98 129.68 27.84C129.89 27.71 130.09 27.64 130.28 27.64C130.62 27.64 131.06 27.75 131.59 27.98C131.25 29.66 130.98 31.32 130.79 32.98C130.6 34.64 130.47 35.96 130.39 36.95C130.35 37.41 130.22 37.72 129.99 37.89C129.76 38.06 129.48 38.15 129.13 38.15C128.41 38.15 127.52 38.09 126.47 37.98C125.42 37.87 124.29 37.81 123.07 37.81H100.4C100.4 37.47 100.48 37.14 100.63 36.84L120.97 3.53999H110.35C109.17 3.53999 108.19 3.60999 107.41 3.73999C106.63 3.86999 105.96 4.14999 105.41 4.56999C104.86 4.98999 104.42 5.56999 104.1 6.30999C103.78 7.04999 103.48 8.04999 103.21 9.30999C103.1 9.87999 102.66 10.17 101.9 10.17C101.71 10.17 101.51 10.14 101.3 10.08C101.09 10.02 100.91 9.93999 100.76 9.81999C101.03 8.13999 101.23 6.56999 101.36 5.10999C101.49 3.63999 101.6 2.44999 101.67 1.53999C101.78 0.779994 102.18 0.399994 102.87 0.399994C103.63 0.399994 104.46 0.449994 105.35 0.539994C106.24 0.629994 107.3 0.679994 108.52 0.679994H130.8C130.8 0.909994 130.8 1.11999 130.77 1.30999C130.75 1.49999 130.68 1.66999 130.57 1.81999L110.29 34.95V34.96Z" fill="url(#paint3_linear_14_14)"/>
</g>
<defs>
<linearGradient id="paint0_linear_14_14" x1="19.31" y1="38.1" x2="19.31" y2="0.399994" gradientUnits="userSpaceOnUse">
<stop stop-color="#D99D41"/>
<stop offset="1" stop-color="#FCC064"/>
</linearGradient>
<linearGradient id="paint1_linear_14_14" x1="48.94" y1="38.09" x2="48.94" y2="0.399994" gradientUnits="userSpaceOnUse">
<stop stop-color="#D99D41"/>
<stop offset="1" stop-color="#FCC064"/>
</linearGradient>
<linearGradient id="paint2_linear_14_14" x1="78.615" y1="38.11" x2="78.615" y2="0" gradientUnits="userSpaceOnUse">
<stop stop-color="#D99D41"/>
<stop offset="1" stop-color="#FCC064"/>
</linearGradient>
<linearGradient id="paint3_linear_14_14" x1="115.995" y1="38.15" x2="115.995" y2="0.399994" gradientUnits="userSpaceOnUse">
<stop stop-color="#D99D41"/>
<stop offset="1" stop-color="#FCC064"/>
</linearGradient>
<clipPath id="clip0_14_14">
<rect width="133.59" height="38.15" fill="white"/>
</clipPath>
</defs>
</svg>
