<svg width="243" height="52" viewBox="0 0 243 52" fill="none" xmlns="http://www.w3.org/2000/svg">
<g clip-path="url(#clip0_4_2)">
<path d="M24.56 9.94C24.22 10.05 23.85 10.11 23.48 10.11C22.95 10.11 22.57 10.01 22.34 9.8C22.11 9.59 21.96 9.37 21.88 9.14C21 6.97 19.87 5.41 18.48 4.46C17.09 3.51 15.23 3.03 12.91 3.03C11.08 3.03 9.53 3.48 8.26 4.37C6.98 5.27 6.35 6.63 6.35 8.45C6.35 9.86 6.84 10.99 7.81 11.85C8.78 12.71 10 13.46 11.46 14.11C12.93 14.76 14.51 15.39 16.2 15.99C17.89 16.6 19.47 17.36 20.94 18.28C22.41 19.19 23.62 20.36 24.6 21.76C25.57 23.17 26.06 24.98 26.06 27.19C26.06 28.64 25.81 30.05 25.32 31.42C24.82 32.79 24.04 34 22.98 35.05C21.91 36.1 20.56 36.93 18.93 37.56C17.29 38.19 15.33 38.5 13.05 38.5C10.54 38.5 8.29 38.23 6.31 37.69C4.33 37.15 2.69 36.56 1.4 35.93C1.29 34.3 1.1 32.69 0.859999 31.11C0.609999 29.53 0.339999 28 0.0299988 26.51C0.409999 26.36 0.849999 26.28 1.34 26.28C1.8 26.28 2.14 26.36 2.37 26.54C2.6 26.71 2.79 27.01 2.94 27.42C3.43 28.87 3.99 30.11 4.6 31.16C5.21 32.21 5.91 33.06 6.71 33.73C7.51 34.4 8.43 34.88 9.48 35.19C10.53 35.49 11.74 35.65 13.11 35.65C14.29 35.65 15.3 35.49 16.14 35.16C16.98 34.84 17.66 34.41 18.2 33.87C18.73 33.34 19.13 32.71 19.4 31.98C19.67 31.26 19.8 30.51 19.8 29.75C19.8 28.11 19.33 26.82 18.4 25.89C17.47 24.96 16.31 24.17 14.92 23.54C13.53 22.91 12.03 22.32 10.41 21.77C8.79 21.22 7.29 20.51 5.9 19.65C4.51 18.79 3.35 17.69 2.42 16.33C1.49 14.98 1.02 13.16 1.02 10.87C1.02 9.34 1.3 7.92 1.85 6.61C2.4 5.29 3.21 4.15 4.28 3.18C5.35 2.21 6.63 1.44 8.14 0.86C9.64 0.29 11.37 0 13.31 0C14.91 0 16.52 0.17 18.14 0.51C19.76 0.85 21.6 1.42 23.65 2.22C23.73 3.36 23.85 4.65 24.02 6.08C24.19 7.51 24.39 8.79 24.62 9.94H24.56Z" fill="#D99D41"/>
<path d="M42.49 29.47C43.4 27.22 44.16 25.36 44.75 23.87C45.34 22.39 45.8 21.17 46.12 20.21C46.44 19.26 46.67 18.51 46.81 17.95C46.94 17.4 47.01 16.93 47.01 16.55C47.01 15.79 46.4 15.26 45.18 14.95C44.91 14.87 44.72 14.79 44.61 14.69C44.5 14.6 44.44 14.4 44.44 14.09C44.44 13.98 44.46 13.83 44.5 13.66C44.54 13.49 44.58 13.31 44.61 13.12C46.13 13.23 47.79 13.29 49.58 13.29C51.18 13.29 52.64 13.23 53.98 13.12C54.06 13.31 54.1 13.52 54.12 13.75C54.14 13.98 54.15 14.13 54.15 14.21C54.15 14.63 53.9 14.9 53.41 15.01C52.88 15.12 52.45 15.23 52.12 15.32C51.8 15.41 51.51 15.57 51.26 15.78C51.01 15.99 50.79 16.26 50.6 16.58C50.41 16.9 50.2 17.35 49.97 17.92L41.57 38.37C41.38 38.45 41.18 38.48 40.97 38.48H40.37C40.1 38.48 39.85 38.33 39.6 38.02C39.35 37.71 39.02 37.07 38.6 36.08L30.77 17.92C30.5 17.35 30.27 16.89 30.08 16.55C29.89 16.21 29.68 15.94 29.45 15.75C29.22 15.56 28.95 15.42 28.65 15.32C28.35 15.22 27.94 15.14 27.45 15.06C26.95 15.02 26.71 14.72 26.71 14.15C26.71 13.88 26.77 13.54 26.88 13.12C27.83 13.2 28.76 13.24 29.68 13.26C30.59 13.28 31.79 13.29 33.28 13.29C34.65 13.29 35.85 13.29 36.88 13.26C37.91 13.24 38.94 13.19 39.96 13.12C40.07 13.54 40.13 13.86 40.13 14.09C40.13 14.59 39.88 14.87 39.39 14.95C38.48 15.06 37.91 15.23 37.7 15.44C37.49 15.65 37.39 15.91 37.39 16.21C37.39 16.4 37.47 16.79 37.62 17.38C37.77 17.97 38.17 19.01 38.82 20.49L42.48 29.46L42.49 29.47Z" fill="#D99D41"/>
<path d="M79.45 36.04C80.02 36.04 80.31 36.52 80.31 37.47C79.81 37.81 79.2 38.07 78.45 38.24C77.71 38.41 76.96 38.5 76.19 38.5C74.48 38.5 73.16 38.08 72.25 37.24C71.34 36.4 70.8 35.43 70.65 34.33C69.89 35.85 68.87 36.93 67.59 37.56C66.31 38.19 64.82 38.5 63.11 38.5C62.31 38.5 61.42 38.43 60.45 38.3C59.48 38.17 58.58 37.89 57.77 37.47C56.95 37.05 56.26 36.46 55.69 35.7C55.12 34.94 54.83 33.93 54.83 32.67C54.83 31.26 55.19 30.06 55.92 29.07C56.64 28.08 57.55 27.25 58.63 26.58C59.71 25.91 60.9 25.38 62.2 24.98C63.49 24.58 64.71 24.25 65.86 23.98C66.35 23.87 66.87 23.74 67.4 23.61C67.93 23.48 68.35 23.37 68.66 23.3C69.08 23.19 69.35 23.02 69.46 22.81C69.57 22.6 69.63 22.06 69.63 21.18C69.63 19.24 69.34 17.74 68.77 16.7C68.2 15.65 67.23 15.13 65.86 15.13C64.76 15.13 63.97 15.47 63.49 16.16C63.01 16.84 62.57 17.93 62.15 19.41C62.04 19.83 61.7 20.14 61.15 20.35C60.6 20.56 59.9 20.78 59.07 21.01C58.61 21.12 58.15 21.22 57.67 21.3C57.19 21.38 56.77 21.41 56.38 21.41C56.15 21.41 56 21.33 55.92 21.15C55.84 20.98 55.81 20.65 55.81 20.15C55.81 19.2 56.16 18.27 56.87 17.35C57.57 16.44 58.46 15.63 59.53 14.92C60.6 14.22 61.77 13.65 63.04 13.24C64.32 12.82 65.54 12.61 66.72 12.61C68.13 12.61 69.4 12.73 70.55 12.98C71.7 13.23 72.67 13.66 73.49 14.29C74.31 14.92 74.95 15.75 75.4 16.8C75.85 17.85 76.09 19.18 76.09 20.82V30.85C76.09 32.18 76.12 33.15 76.18 33.76C76.24 34.37 76.34 34.82 76.49 35.13C76.83 35.81 77.37 36.16 78.09 36.16C78.39 36.16 78.65 36.14 78.86 36.1C79.07 36.06 79.27 36.04 79.46 36.04H79.45ZM69.62 25.36L68.36 25.59C67.48 25.74 66.66 25.96 65.9 26.25C65.14 26.54 64.48 26.92 63.93 27.39C63.38 27.87 62.94 28.46 62.62 29.16C62.3 29.87 62.13 30.71 62.13 31.7C62.13 33.19 62.37 34.22 62.84 34.81C63.32 35.4 64.01 35.7 64.92 35.7C66.37 35.7 67.51 35.17 68.35 34.1C69.19 33.03 69.61 31.55 69.61 29.64V25.36H69.62Z" fill="#D99D41"/>
<path d="M100.58 12.68C101.68 12.68 102.51 12.97 103.06 13.54C103.61 14.11 103.89 14.83 103.89 15.71C103.89 15.98 103.84 16.21 103.75 16.4C103.65 16.59 103.44 16.8 103.12 17.03C102.8 17.26 102.35 17.52 101.78 17.8C101.21 18.09 100.47 18.44 99.55 18.86C98.94 18.25 98.38 17.84 97.87 17.63C97.36 17.42 96.85 17.32 96.36 17.32C95.9 17.32 95.45 17.4 95.02 17.55C94.58 17.7 94.19 18 93.85 18.44C93.51 18.88 93.23 19.46 93.02 20.18C92.81 20.9 92.71 21.84 92.71 22.98V33.6C92.71 34.36 93.01 34.92 93.62 35.28C94.23 35.64 95.43 35.98 97.22 36.28C97.64 36.36 97.85 36.6 97.85 37.02C97.85 37.55 97.81 37.91 97.74 38.1C97.24 38.06 96.63 38.03 95.91 38.02C95.19 38 94.42 37.97 93.63 37.93C92.83 37.89 92.04 37.86 91.26 37.84C90.48 37.82 89.78 37.81 89.18 37.81C87.73 37.81 86.5 37.84 85.47 37.9C84.44 37.96 83.47 38.02 82.56 38.1C82.48 37.91 82.45 37.55 82.45 37.02C82.45 36.6 82.66 36.35 83.08 36.28C84.3 36.05 85.14 35.8 85.59 35.54C86.04 35.28 86.28 34.85 86.28 34.28V18.92C86.28 18.04 86.12 17.34 85.79 16.81C85.47 16.28 84.56 15.92 83.08 15.73C82.55 15.65 82.28 15.37 82.28 14.87V14.41C82.28 14.22 82.32 14.07 82.39 13.95C82.62 13.95 82.94 13.95 83.36 13.92C83.78 13.9 84.24 13.88 84.73 13.86C85.22 13.84 85.72 13.81 86.21 13.77C86.71 13.73 87.14 13.68 87.52 13.6C88.36 13.49 89.22 13.34 90.12 13.17C91.01 13 91.61 12.91 91.92 12.91C92.45 12.91 92.72 13.2 92.72 13.77V16.85C94.05 15.4 95.33 14.35 96.55 13.68C97.77 13.01 99.12 12.68 100.61 12.68H100.58Z" fill="#D99D41"/>
<path d="M120.86 34.1C121.24 33.87 121.56 33.76 121.83 33.76C122.21 33.76 122.61 34.16 123.03 34.96C121.43 36.41 120.03 37.36 118.83 37.82C117.63 38.28 116.36 38.51 115.03 38.51C114.27 38.51 113.53 38.41 112.83 38.22C112.12 38.03 111.49 37.69 110.92 37.19C110.35 36.69 109.89 36.02 109.55 35.16C109.21 34.3 109.04 33.21 109.04 31.88V16.17H105.61V14.74C105.61 14.59 105.65 14.4 105.72 14.17C105.8 13.94 106.02 13.83 106.41 13.83C107.44 13.83 108.39 13.54 109.27 12.94C110.15 12.35 110.85 11.47 111.38 10.28C111.8 9.4 112.27 8.7 112.78 8.17C113.29 7.64 113.8 7.37 114.29 7.37H115.49V13.31H122.17C122.17 14.53 122.08 15.31 121.91 15.65C121.74 15.99 121.42 16.16 120.97 16.16H115.49V30.27C115.49 31.41 115.53 32.32 115.6 32.98C115.68 33.65 115.8 34.15 115.97 34.49C116.14 34.83 116.37 35.05 116.66 35.15C116.95 35.25 117.28 35.29 117.66 35.29C118.08 35.29 118.57 35.19 119.15 34.98C119.72 34.77 120.29 34.48 120.86 34.09V34.1Z" fill="#D99D41"/>
<path d="M139.93 34.1C140.31 33.87 140.63 33.76 140.9 33.76C141.28 33.76 141.68 34.16 142.1 34.96C140.5 36.41 139.1 37.36 137.9 37.82C136.7 38.28 135.43 38.51 134.1 38.51C133.34 38.51 132.6 38.41 131.9 38.22C131.19 38.03 130.56 37.69 129.99 37.19C129.42 36.69 128.96 36.02 128.62 35.16C128.28 34.3 128.11 33.21 128.11 31.88V16.17H124.68V14.74C124.68 14.59 124.72 14.4 124.79 14.17C124.86 13.94 125.09 13.83 125.48 13.83C126.51 13.83 127.46 13.54 128.34 12.94C129.22 12.35 129.92 11.47 130.45 10.28C130.87 9.4 131.34 8.7 131.85 8.17C132.36 7.64 132.87 7.37 133.36 7.37H134.56V13.31H141.24C141.24 14.53 141.16 15.31 140.98 15.65C140.81 15.99 140.49 16.16 140.04 16.16H134.56V30.27C134.56 31.41 134.6 32.32 134.67 32.98C134.75 33.65 134.87 34.15 135.04 34.49C135.21 34.83 135.44 35.05 135.72 35.15C136.01 35.25 136.34 35.29 136.72 35.29C137.14 35.29 137.63 35.19 138.21 34.98C138.78 34.77 139.35 34.48 139.92 34.09L139.93 34.1Z" fill="#D99D41"/>
<path d="M147.98 19.19C147.98 18.05 147.77 17.2 147.35 16.65C146.93 16.1 145.96 15.73 144.44 15.54C143.91 15.43 143.64 15.1 143.64 14.57C143.64 14.27 143.68 13.96 143.75 13.66C144.02 13.66 144.37 13.66 144.81 13.63C145.25 13.61 145.72 13.59 146.24 13.57C146.75 13.55 147.27 13.52 147.78 13.48C148.29 13.44 148.76 13.4 149.18 13.37C150.13 13.26 151.06 13.1 151.98 12.91C152.89 12.72 153.5 12.62 153.81 12.62C154.46 12.62 154.78 12.91 154.78 13.48C154.78 13.9 154.72 14.45 154.61 15.14C154.5 15.83 154.44 16.78 154.44 18V32.11C154.44 34.66 154.31 36.78 154.04 38.48C153.77 40.17 153.25 41.71 152.47 43.08C151.69 44.45 150.57 45.77 149.13 47.05C147.68 48.32 145.78 49.82 143.42 51.53C143.19 51.34 142.99 51.14 142.82 50.93C142.65 50.72 142.56 50.48 142.56 50.22C142.56 50.03 142.61 49.86 142.7 49.71C142.79 49.56 142.88 49.42 142.96 49.31C143.99 48.28 144.83 47.35 145.47 46.51C146.12 45.67 146.63 44.83 147.01 44C147.39 43.16 147.65 42.26 147.78 41.29C147.91 40.32 147.98 39.17 147.98 37.83V19.21V19.19ZM146.96 4.28C146.96 3.06 147.35 2.06 148.13 1.28C148.91 0.500001 149.91 0.110001 151.13 0.110001C152.35 0.110001 153.29 0.500001 154.07 1.28C154.85 2.06 155.24 3.06 155.24 4.28C155.24 5.5 154.85 6.5 154.07 7.28C153.29 8.06 152.31 8.45 151.13 8.45C149.95 8.45 148.91 8.06 148.13 7.28C147.35 6.5 146.96 5.5 146.96 4.28Z" fill="#D99D41"/>
<path d="M182.72 32.56C183.06 32.29 183.36 32.16 183.63 32.16C183.82 32.16 184.04 32.25 184.29 32.42C184.54 32.59 184.79 32.92 185.06 33.42C183.57 35.17 181.87 36.46 179.95 37.27C178.03 38.09 175.75 38.5 173.12 38.5C171.63 38.5 170.18 38.26 168.75 37.79C167.32 37.32 166.04 36.57 164.89 35.56C163.74 34.55 162.82 33.28 162.12 31.76C161.41 30.24 161.06 28.41 161.06 26.28C161.06 24.15 161.47 22.29 162.29 20.6C163.11 18.91 164.15 17.47 165.4 16.29C166.66 15.11 168.03 14.21 169.51 13.58C171 12.95 172.42 12.64 173.79 12.64C177.48 12.64 180.27 13.71 182.16 15.84C184.04 17.97 184.99 20.89 184.99 24.58C184.99 24.85 184.86 24.98 184.59 24.98L168.26 25.66C168.26 28.63 168.92 30.91 170.25 32.49C171.58 34.07 173.57 34.86 176.23 34.86C177.41 34.86 178.56 34.67 179.7 34.29C180.84 33.91 181.84 33.34 182.72 32.58V32.56ZM172.97 15.14C171.49 15.14 170.31 15.78 169.42 17.05C168.53 18.33 168.09 20.33 168.09 23.08L176.95 22.68C177.52 22.64 177.8 22.39 177.8 21.94C177.8 21.22 177.71 20.45 177.52 19.65C177.33 18.85 177.04 18.12 176.64 17.45C176.24 16.78 175.74 16.23 175.14 15.79C174.53 15.35 173.81 15.13 172.98 15.13L172.97 15.14Z" fill="#D99D41"/>
<path d="M206.7 12.68C207.8 12.68 208.63 12.97 209.18 13.54C209.73 14.11 210.01 14.83 210.01 15.71C210.01 15.98 209.96 16.21 209.87 16.4C209.77 16.59 209.57 16.8 209.24 17.03C208.91 17.26 208.47 17.52 207.9 17.8C207.33 18.09 206.59 18.44 205.67 18.86C205.06 18.25 204.5 17.84 203.99 17.63C203.48 17.42 202.97 17.32 202.48 17.32C202.02 17.32 201.57 17.4 201.14 17.55C200.7 17.7 200.31 18 199.97 18.44C199.63 18.88 199.35 19.46 199.14 20.18C198.93 20.9 198.83 21.84 198.83 22.98V33.6C198.83 34.36 199.13 34.92 199.74 35.28C200.35 35.64 201.55 35.98 203.34 36.28C203.76 36.36 203.97 36.6 203.97 37.02C203.97 37.55 203.93 37.91 203.86 38.1C203.36 38.06 202.75 38.03 202.03 38.02C201.31 38 200.54 37.97 199.75 37.93C198.95 37.89 198.16 37.86 197.38 37.84C196.6 37.82 195.9 37.81 195.3 37.81C193.85 37.81 192.62 37.84 191.59 37.9C190.56 37.96 189.59 38.02 188.68 38.1C188.6 37.91 188.57 37.55 188.57 37.02C188.57 36.6 188.78 36.35 189.2 36.28C190.42 36.05 191.26 35.8 191.71 35.54C192.16 35.28 192.4 34.85 192.4 34.28V18.92C192.4 18.04 192.24 17.34 191.91 16.81C191.59 16.28 190.68 15.92 189.2 15.73C188.67 15.65 188.4 15.37 188.4 14.87V14.41C188.4 14.22 188.44 14.07 188.51 13.95C188.74 13.95 189.06 13.95 189.48 13.92C189.9 13.9 190.36 13.88 190.85 13.86C191.34 13.84 191.84 13.81 192.33 13.77C192.83 13.73 193.26 13.68 193.64 13.6C194.48 13.49 195.34 13.34 196.24 13.17C197.13 13 197.73 12.91 198.04 12.91C198.57 12.91 198.84 13.2 198.84 13.77V16.85C200.17 15.4 201.45 14.35 202.67 13.68C203.89 13.01 205.24 12.68 206.73 12.68H206.7Z" fill="#D99D41"/>
<path d="M238.28 34.33C238.28 34.86 238.51 35.27 238.97 35.56C239.43 35.85 240.26 36.08 241.48 36.27C241.63 36.31 241.77 36.38 241.91 36.47C242.04 36.56 242.11 36.75 242.11 37.01C242.11 37.24 242.11 37.44 242.08 37.61C242.06 37.78 242.03 37.94 241.99 38.1C241 38.02 240.01 37.96 239.02 37.9C238.03 37.84 236.79 37.81 235.31 37.81C234.09 37.81 232.95 37.84 231.88 37.9C230.81 37.96 229.79 38.02 228.8 38.1C228.72 37.91 228.69 37.55 228.69 37.02C228.69 36.6 228.9 36.35 229.32 36.28C230.31 36.09 230.98 35.86 231.32 35.59C231.66 35.32 231.83 34.9 231.83 34.33V23.14C231.83 20.89 231.55 19.34 231 18.48C230.45 17.62 229.56 17.19 228.34 17.19C226.63 17.19 225.16 17.77 223.94 18.93C222.72 20.09 222.11 21.81 222.11 24.1V34.32C222.11 34.89 222.28 35.31 222.62 35.58C222.96 35.85 223.63 36.08 224.62 36.27C225.04 36.35 225.25 36.59 225.25 37.01C225.25 37.54 225.21 37.9 225.14 38.09C224.15 38.01 223.12 37.95 222.06 37.89C220.99 37.83 219.85 37.8 218.63 37.8C217.15 37.8 215.9 37.83 214.89 37.89C213.88 37.95 212.9 38.01 211.95 38.09C211.91 37.94 211.88 37.78 211.86 37.6C211.84 37.43 211.83 37.23 211.83 37C211.83 36.73 211.9 36.55 212.03 36.46C212.16 36.37 212.31 36.3 212.46 36.26C213.68 36.03 214.52 35.78 214.97 35.52C215.42 35.26 215.66 34.83 215.66 34.26V19.18C215.66 18.04 215.45 17.16 215.03 16.55C214.61 15.94 213.74 15.58 212.4 15.47C211.9 15.36 211.66 15.05 211.66 14.56V14.13C211.66 13.96 211.7 13.8 211.77 13.64C212 13.64 212.33 13.64 212.77 13.61C213.21 13.59 213.67 13.57 214.17 13.55C214.66 13.53 215.16 13.5 215.65 13.46C216.14 13.42 216.6 13.38 217.02 13.35C217.97 13.24 218.89 13.08 219.76 12.89C220.63 12.7 221.23 12.6 221.53 12.6C222.14 12.6 222.44 12.89 222.44 13.46C222.44 13.88 222.38 14.43 222.27 15.12C222.16 15.81 222.1 16.76 222.1 17.98C223.32 16.38 224.67 15.09 226.16 14.1C227.64 13.11 229.19 12.61 230.79 12.61C233.11 12.61 234.94 13.26 236.27 14.55C237.6 15.84 238.27 17.79 238.27 20.38V34.32L238.28 34.33Z" fill="#D99D41"/>
</g>
<defs>
<clipPath id="clip0_4_2">
<rect width="242.11" height="51.52" fill="white"/>
</clipPath>
</defs>
</svg>
