<svg width="408" height="39" viewBox="0 0 408 39" fill="none" xmlns="http://www.w3.org/2000/svg">
<g clip-path="url(#clip0_1_2)">
<path d="M38.61 19.25C38.61 21.5 38.23 23.72 37.47 25.93C36.71 28.14 35.53 30.13 33.93 31.9C32.33 33.67 30.29 35.1 27.82 36.18C25.34 37.26 22.41 37.81 19.02 37.81H7.31C6.32 37.81 5.17 37.84 3.85 37.9C2.54 37.96 1.29 38.02 0.11 38.1C0.03 37.95 0 37.78 0 37.59V37.13C0 36.71 0.07 36.44 0.2 36.3C0.33 36.16 0.49 36.08 0.69 36.04C1.79 35.85 2.68 35.59 3.35 35.27C4.02 34.95 4.35 34.39 4.35 33.59V4.97C4.35 4.21 4.07 3.67 3.52 3.34C2.97 3.02 2.02 2.74 0.69 2.51C0.39 2.43 0.19 2.31 0.12 2.14C0.04 1.97 0.01 1.73 0.01 1.43V0.97C0.01 0.78 0.05 0.59 0.12 0.4C0.92 0.48 1.63 0.52 2.26 0.54C2.89 0.56 3.47 0.59 4 0.62C4.53 0.66 5.07 0.68 5.6 0.68H18.85C22.09 0.68 24.93 1.18 27.39 2.16C29.85 3.15 31.9 4.48 33.56 6.16C35.22 7.84 36.47 9.8 37.33 12.04C38.19 14.28 38.62 16.69 38.62 19.24L38.61 19.25ZM30.73 20.33C30.73 17.36 30.39 14.81 29.7 12.68C29.01 10.55 28.02 8.81 26.7 7.45C25.39 6.1 23.75 5.11 21.79 4.48C19.83 3.85 17.59 3.54 15.08 3.54H11.54V32.9C11.54 33.28 11.6 33.61 11.71 33.87C11.82 34.14 12.05 34.35 12.4 34.5C12.75 34.65 13.22 34.77 13.83 34.84C14.44 34.92 15.26 34.95 16.29 34.95C21.24 34.95 24.89 33.64 27.23 31.01C29.57 28.38 30.74 24.82 30.74 20.33H30.73Z" fill="#D99D41"/>
<path d="M54.54 33.58C54.54 33.96 54.57 34.28 54.63 34.52C54.69 34.77 54.84 34.99 55.09 35.18C55.34 35.37 55.7 35.53 56.17 35.67C56.65 35.8 57.28 35.93 58.08 36.04C58.46 36.12 58.65 36.44 58.65 37.01C58.65 37.12 58.65 37.3 58.62 37.52C58.6 37.75 58.57 37.94 58.53 38.09C57.31 38.01 56.01 37.95 54.62 37.89C53.23 37.83 52 37.8 50.94 37.8C49.88 37.8 48.6 37.83 47.23 37.89C45.86 37.95 44.56 38.01 43.35 38.09C43.27 37.94 43.24 37.75 43.24 37.52V37.01C43.24 36.4 43.43 36.08 43.81 36.04C44.61 35.93 45.25 35.8 45.72 35.67C46.2 35.54 46.55 35.38 46.78 35.18C47.01 34.98 47.16 34.77 47.24 34.52C47.32 34.27 47.35 33.96 47.35 33.58V4.97C47.35 4.59 47.31 4.28 47.24 4.03C47.16 3.78 47.01 3.56 46.78 3.37C46.55 3.18 46.2 3.02 45.72 2.88C45.24 2.75 44.61 2.62 43.81 2.51C43.43 2.4 43.24 2.07 43.24 1.54V1.03C43.24 0.8 43.28 0.59 43.35 0.4C44.57 0.48 45.86 0.54 47.23 0.6C48.6 0.66 49.84 0.69 50.94 0.69C52.04 0.69 53.23 0.66 54.62 0.6C56.01 0.54 57.31 0.48 58.53 0.4C58.57 0.59 58.6 0.8 58.62 1.03C58.64 1.26 58.65 1.43 58.65 1.54C58.65 2.07 58.46 2.4 58.08 2.51C57.28 2.62 56.64 2.75 56.17 2.88C55.69 3.01 55.33 3.17 55.09 3.37C54.84 3.56 54.69 3.78 54.63 4.03C54.57 4.28 54.54 4.59 54.54 4.97V33.59V33.58Z" fill="#D99D41"/>
<path d="M84.64 25.25H72.65L69.68 33.19C69.57 33.38 69.49 33.59 69.45 33.82C69.41 34.05 69.39 34.22 69.39 34.33C69.39 34.75 69.59 35.09 69.99 35.36C70.39 35.63 71.2 35.86 72.42 36.05C72.95 36.13 73.22 36.49 73.22 37.13C73.22 37.4 73.18 37.72 73.11 38.1C72.08 38.02 71 37.96 69.85 37.9C68.71 37.84 67.58 37.81 66.48 37.81C65.72 37.81 64.92 37.83 64.08 37.87C63.24 37.91 62.31 37.98 61.28 38.1C61.2 37.95 61.17 37.78 61.17 37.59V37.13C61.17 36.41 61.42 36.03 61.91 35.99C63.09 35.76 63.94 35.51 64.45 35.25C64.96 34.98 65.37 34.53 65.68 33.88L79.45 0.97C79.75 0.32 80.21 0 80.82 0C81.01 0 81.2 0 81.39 0.03C81.58 0.05 81.79 0.08 82.02 0.12L95.78 34.05C96.01 34.62 96.45 35.05 97.09 35.34C97.74 35.63 98.44 35.83 99.2 35.94C99.77 36.05 100.06 36.44 100.06 37.08C100.06 37.38 100.02 37.73 99.95 38.11C98.73 38.03 97.53 37.97 96.35 37.91C95.17 37.85 94.06 37.82 93.04 37.82C92.51 37.82 91.86 37.82 91.1 37.85C90.34 37.87 89.56 37.9 88.76 37.94C87.96 37.98 87.17 38.01 86.39 38.03C85.61 38.05 84.95 38.08 84.42 38.11C84.34 37.96 84.31 37.79 84.31 37.6V37.14C84.31 36.8 84.38 36.54 84.51 36.37C84.64 36.2 84.79 36.09 84.94 36.06C85.93 35.87 86.66 35.65 87.14 35.4C87.62 35.15 87.85 34.78 87.85 34.29C87.85 34.06 87.79 33.78 87.68 33.43L84.65 25.26L84.64 25.25ZM83.56 22.39L78.71 9.54L73.74 22.39H83.56Z" fill="#D99D41"/>
<path d="M112.29 34.96H123.83C124.97 34.96 125.93 34.83 126.71 34.56C127.49 34.29 128.15 33.89 128.68 33.36C129.21 32.83 129.68 32.16 130.08 31.36C130.48 30.56 130.87 29.61 131.25 28.5C131.33 28.2 131.47 27.98 131.68 27.84C131.89 27.71 132.09 27.64 132.28 27.64C132.62 27.64 133.06 27.75 133.59 27.98C133.25 29.66 132.98 31.32 132.79 32.98C132.6 34.64 132.47 35.96 132.39 36.95C132.35 37.41 132.22 37.72 131.99 37.89C131.76 38.06 131.48 38.15 131.13 38.15C130.41 38.15 129.52 38.09 128.47 37.98C127.42 37.87 126.29 37.81 125.07 37.81H102.4C102.4 37.47 102.48 37.14 102.63 36.84L122.97 3.54H112.35C111.17 3.54 110.19 3.61 109.41 3.74C108.63 3.87 107.96 4.15 107.41 4.57C106.86 4.99 106.42 5.57 106.1 6.31C105.78 7.05 105.48 8.05 105.22 9.31C105.11 9.88 104.67 10.17 103.91 10.17C103.72 10.17 103.52 10.14 103.31 10.08C103.1 10.02 102.92 9.94 102.77 9.82C103.04 8.14 103.24 6.57 103.37 5.11C103.5 3.64 103.61 2.45 103.68 1.54C103.79 0.78 104.19 0.4 104.88 0.4C105.64 0.4 106.47 0.45 107.36 0.54C108.25 0.63 109.31 0.68 110.53 0.68H132.81C132.81 0.91 132.8 1.12 132.78 1.31C132.76 1.5 132.7 1.67 132.58 1.82L112.3 34.95L112.29 34.96Z" fill="#D99D41"/>
<path d="M175.8 19.25C175.8 21.5 175.42 23.72 174.66 25.93C173.9 28.14 172.72 30.13 171.12 31.9C169.52 33.67 167.48 35.1 165.01 36.18C162.53 37.26 159.6 37.81 156.21 37.81H144.5C143.51 37.81 142.36 37.84 141.04 37.9C139.73 37.96 138.48 38.02 137.3 38.1C137.22 37.95 137.19 37.78 137.19 37.59V37.13C137.19 36.71 137.26 36.44 137.39 36.3C137.52 36.16 137.68 36.08 137.88 36.04C138.98 35.85 139.87 35.59 140.54 35.27C141.21 34.95 141.54 34.39 141.54 33.59V4.97C141.54 4.21 141.26 3.67 140.71 3.34C140.16 3.02 139.21 2.74 137.88 2.51C137.58 2.43 137.38 2.31 137.31 2.14C137.23 1.97 137.2 1.73 137.2 1.43V0.97C137.2 0.78 137.24 0.59 137.31 0.4C138.11 0.48 138.82 0.52 139.45 0.54C140.08 0.56 140.66 0.59 141.19 0.62C141.72 0.66 142.26 0.68 142.79 0.68H156.04C159.28 0.68 162.12 1.18 164.58 2.16C167.04 3.15 169.09 4.48 170.75 6.16C172.41 7.84 173.66 9.8 174.52 12.04C175.38 14.28 175.81 16.69 175.81 19.24L175.8 19.25ZM167.92 20.33C167.92 17.36 167.58 14.81 166.89 12.68C166.2 10.55 165.21 8.81 163.89 7.45C162.58 6.1 160.94 5.11 158.98 4.48C157.02 3.85 154.78 3.54 152.27 3.54H148.73V32.9C148.73 33.28 148.79 33.61 148.9 33.87C149.01 34.14 149.24 34.35 149.59 34.5C149.94 34.65 150.41 34.77 151.02 34.84C151.63 34.92 152.45 34.95 153.48 34.95C158.43 34.95 162.08 33.64 164.42 31.01C166.76 28.38 167.93 24.82 167.93 20.33H167.92Z" fill="white"/>
<path d="M191.74 33.58C191.74 33.96 191.77 34.28 191.82 34.52C191.88 34.77 192.03 34.99 192.28 35.18C192.53 35.37 192.89 35.53 193.36 35.67C193.84 35.8 194.47 35.93 195.27 36.04C195.65 36.12 195.84 36.44 195.84 37.01C195.84 37.12 195.83 37.3 195.81 37.52C195.79 37.75 195.76 37.94 195.73 38.09C194.51 38.01 193.21 37.95 191.82 37.89C190.43 37.83 189.2 37.8 188.14 37.8C187.08 37.8 185.8 37.83 184.43 37.89C183.06 37.95 181.76 38.01 180.55 38.09C180.47 37.94 180.44 37.75 180.44 37.52V37.01C180.44 36.4 180.63 36.08 181.01 36.04C181.81 35.93 182.45 35.8 182.92 35.67C183.4 35.54 183.75 35.38 183.98 35.18C184.21 34.98 184.36 34.77 184.44 34.52C184.52 34.27 184.55 33.96 184.55 33.58V4.97C184.55 4.59 184.51 4.28 184.44 4.03C184.36 3.78 184.21 3.56 183.98 3.37C183.75 3.18 183.4 3.02 182.92 2.88C182.44 2.75 181.81 2.62 181.01 2.51C180.63 2.4 180.44 2.07 180.44 1.54V1.03C180.44 0.8 180.48 0.59 180.55 0.4C181.77 0.48 183.06 0.54 184.43 0.6C185.8 0.66 187.04 0.69 188.14 0.69C189.24 0.69 190.43 0.66 191.82 0.6C193.21 0.54 194.51 0.48 195.73 0.4C195.77 0.59 195.8 0.8 195.81 1.03C195.83 1.26 195.84 1.43 195.84 1.54C195.84 2.07 195.65 2.4 195.27 2.51C194.47 2.62 193.83 2.75 193.36 2.88C192.88 3.01 192.52 3.17 192.28 3.37C192.03 3.56 191.88 3.78 191.82 4.03C191.76 4.28 191.74 4.59 191.74 4.97V33.59V33.58Z" fill="white"/>
<path d="M221.83 25.25H209.84L206.87 33.19C206.76 33.38 206.68 33.59 206.64 33.82C206.6 34.05 206.58 34.22 206.58 34.33C206.58 34.75 206.78 35.09 207.18 35.36C207.58 35.63 208.39 35.86 209.61 36.05C210.14 36.13 210.41 36.49 210.41 37.13C210.41 37.4 210.37 37.72 210.3 38.1C209.27 38.02 208.19 37.96 207.04 37.9C205.9 37.84 204.77 37.81 203.67 37.81C202.91 37.81 202.11 37.83 201.27 37.87C200.43 37.91 199.5 37.98 198.47 38.1C198.39 37.95 198.36 37.78 198.36 37.59V37.13C198.36 36.41 198.61 36.03 199.1 35.99C200.28 35.76 201.13 35.51 201.64 35.25C202.15 34.98 202.56 34.53 202.87 33.88L216.64 0.97C216.94 0.32 217.4 0 218.01 0C218.2 0 218.39 0 218.58 0.03C218.77 0.05 218.98 0.08 219.21 0.12L232.97 34.05C233.2 34.62 233.64 35.05 234.28 35.34C234.93 35.63 235.63 35.83 236.39 35.94C236.96 36.05 237.25 36.44 237.25 37.08C237.25 37.38 237.21 37.73 237.14 38.11C235.92 38.03 234.72 37.97 233.54 37.91C232.36 37.85 231.25 37.82 230.23 37.82C229.7 37.82 229.05 37.82 228.29 37.85C227.53 37.87 226.75 37.9 225.95 37.94C225.15 37.98 224.36 38.01 223.58 38.03C222.8 38.05 222.14 38.08 221.61 38.11C221.53 37.96 221.49 37.79 221.49 37.6V37.14C221.49 36.8 221.56 36.54 221.69 36.37C221.82 36.2 221.97 36.09 222.12 36.06C223.11 35.87 223.84 35.65 224.32 35.4C224.79 35.15 225.03 34.78 225.03 34.29C225.03 34.06 224.97 33.78 224.86 33.43L221.83 25.26V25.25ZM220.75 22.39L215.89 9.54L210.92 22.39H220.74H220.75Z" fill="white"/>
<path d="M249.48 34.96H261.02C262.16 34.96 263.12 34.83 263.9 34.56C264.68 34.29 265.34 33.89 265.87 33.36C266.4 32.83 266.87 32.16 267.27 31.36C267.67 30.56 268.06 29.61 268.44 28.5C268.52 28.2 268.66 27.98 268.87 27.84C269.08 27.71 269.28 27.64 269.47 27.64C269.81 27.64 270.25 27.75 270.78 27.98C270.44 29.66 270.17 31.32 269.98 32.98C269.79 34.64 269.66 35.96 269.58 36.95C269.54 37.41 269.41 37.72 269.18 37.89C268.95 38.06 268.67 38.15 268.32 38.15C267.6 38.15 266.71 38.09 265.66 37.98C264.61 37.87 263.48 37.81 262.26 37.81H239.59C239.59 37.47 239.67 37.14 239.82 36.84L260.15 3.54H249.53C248.35 3.54 247.37 3.61 246.59 3.74C245.81 3.87 245.14 4.15 244.59 4.57C244.04 4.99 243.6 5.57 243.28 6.31C242.96 7.05 242.66 8.05 242.4 9.31C242.29 9.88 241.85 10.17 241.09 10.17C240.9 10.17 240.7 10.14 240.49 10.08C240.28 10.02 240.1 9.94 239.95 9.82C240.22 8.14 240.42 6.57 240.55 5.11C240.68 3.64 240.79 2.45 240.86 1.54C240.97 0.78 241.37 0.4 242.06 0.4C242.82 0.4 243.65 0.45 244.54 0.54C245.43 0.63 246.49 0.68 247.71 0.68H269.99C269.99 0.91 269.99 1.12 269.96 1.31C269.94 1.5 269.87 1.67 269.76 1.82L249.48 34.95V34.96Z" fill="white"/>
<path d="M312.99 19.25C312.99 21.5 312.61 23.72 311.85 25.93C311.09 28.14 309.91 30.13 308.31 31.9C306.71 33.67 304.67 35.1 302.2 36.18C299.72 37.26 296.79 37.81 293.4 37.81H281.69C280.7 37.81 279.55 37.84 278.23 37.9C276.92 37.96 275.67 38.02 274.49 38.1C274.41 37.95 274.38 37.78 274.38 37.59V37.13C274.38 36.71 274.45 36.44 274.58 36.3C274.71 36.16 274.87 36.08 275.07 36.04C276.17 35.85 277.06 35.59 277.73 35.27C278.4 34.95 278.73 34.39 278.73 33.59V4.97C278.73 4.21 278.45 3.67 277.9 3.34C277.35 3.02 276.41 2.74 275.07 2.51C274.77 2.43 274.57 2.31 274.5 2.14C274.42 1.97 274.39 1.73 274.39 1.43V0.97C274.39 0.78 274.43 0.59 274.5 0.4C275.3 0.48 276.01 0.52 276.64 0.54C277.27 0.56 277.85 0.59 278.38 0.62C278.91 0.66 279.45 0.68 279.98 0.68H293.23C296.47 0.68 299.31 1.18 301.77 2.16C304.23 3.15 306.28 4.48 307.94 6.16C309.6 7.84 310.85 9.8 311.71 12.04C312.57 14.29 313 16.69 313 19.24L312.99 19.25ZM305.11 20.33C305.11 17.36 304.77 14.81 304.08 12.68C303.4 10.55 302.4 8.81 301.08 7.45C299.77 6.1 298.13 5.11 296.17 4.48C294.21 3.85 291.97 3.54 289.46 3.54H285.92V32.9C285.92 33.28 285.98 33.61 286.09 33.87C286.2 34.14 286.43 34.35 286.78 34.5C287.13 34.65 287.6 34.77 288.21 34.84C288.82 34.92 289.64 34.95 290.67 34.95C295.62 34.95 299.27 33.64 301.61 31.01C303.95 28.38 305.12 24.82 305.12 20.33H305.11Z" fill="#D99D41"/>
<path d="M328.92 33.58C328.92 33.96 328.95 34.28 329.01 34.52C329.07 34.77 329.22 34.99 329.47 35.18C329.72 35.37 330.08 35.53 330.56 35.67C331.04 35.8 331.67 35.93 332.47 36.04C332.85 36.12 333.04 36.44 333.04 37.01C333.04 37.12 333.04 37.3 333.01 37.52C332.99 37.75 332.96 37.94 332.92 38.09C331.7 38.01 330.4 37.95 329.01 37.89C327.62 37.83 326.39 37.8 325.33 37.8C324.27 37.8 322.99 37.83 321.62 37.89C320.25 37.95 318.95 38.01 317.74 38.09C317.66 37.94 317.63 37.75 317.63 37.52V37.01C317.63 36.4 317.82 36.08 318.2 36.04C319 35.93 319.64 35.8 320.11 35.67C320.59 35.54 320.94 35.38 321.17 35.18C321.4 34.98 321.55 34.77 321.63 34.52C321.71 34.27 321.74 33.96 321.74 33.58V4.97C321.74 4.59 321.7 4.28 321.63 4.03C321.55 3.78 321.4 3.56 321.17 3.37C320.94 3.18 320.59 3.02 320.11 2.88C319.63 2.75 319 2.62 318.2 2.51C317.82 2.4 317.63 2.07 317.63 1.54V1.03C317.63 0.8 317.67 0.59 317.74 0.4C318.96 0.48 320.25 0.54 321.62 0.6C322.99 0.66 324.23 0.69 325.33 0.69C326.43 0.69 327.62 0.66 329.01 0.6C330.4 0.54 331.7 0.48 332.92 0.4C332.96 0.59 332.99 0.8 333.01 1.03C333.03 1.26 333.04 1.43 333.04 1.54C333.04 2.07 332.85 2.4 332.47 2.51C331.67 2.62 331.03 2.75 330.56 2.88C330.08 3.01 329.72 3.17 329.47 3.37C329.22 3.57 329.07 3.78 329.01 4.03C328.95 4.28 328.92 4.59 328.92 4.97V33.59V33.58Z" fill="#D99D41"/>
<path d="M359.02 25.25H347.03L344.06 33.19C343.95 33.38 343.87 33.59 343.83 33.82C343.79 34.05 343.77 34.22 343.77 34.33C343.77 34.75 343.97 35.09 344.37 35.36C344.77 35.63 345.58 35.86 346.8 36.05C347.33 36.13 347.6 36.49 347.6 37.13C347.6 37.4 347.56 37.72 347.49 38.1C346.46 38.02 345.38 37.96 344.23 37.9C343.09 37.84 341.96 37.81 340.86 37.81C340.1 37.81 339.3 37.83 338.46 37.87C337.62 37.91 336.69 37.98 335.66 38.1C335.58 37.95 335.55 37.78 335.55 37.59V37.13C335.55 36.41 335.8 36.03 336.29 35.99C337.47 35.76 338.32 35.51 338.83 35.25C339.34 34.98 339.75 34.53 340.06 33.88L353.83 0.97C354.13 0.32 354.59 0 355.2 0C355.39 0 355.58 0 355.77 0.03C355.96 0.05 356.17 0.08 356.4 0.12L370.16 34.05C370.39 34.62 370.83 35.05 371.47 35.34C372.12 35.63 372.82 35.83 373.58 35.94C374.15 36.05 374.44 36.44 374.44 37.08C374.44 37.38 374.4 37.73 374.33 38.11C373.11 38.03 371.91 37.97 370.73 37.91C369.55 37.85 368.44 37.82 367.42 37.82C366.89 37.82 366.24 37.82 365.48 37.85C364.72 37.87 363.94 37.9 363.14 37.94C362.34 37.98 361.55 38.01 360.77 38.03C359.99 38.05 359.33 38.08 358.8 38.11C358.72 37.96 358.69 37.79 358.69 37.6V37.14C358.69 36.8 358.76 36.54 358.89 36.37C359.02 36.2 359.17 36.09 359.32 36.06C360.31 35.87 361.04 35.65 361.52 35.4C362 35.15 362.23 34.78 362.23 34.29C362.23 34.06 362.17 33.78 362.06 33.43L359.03 25.26L359.02 25.25ZM357.94 22.39L353.08 9.54L348.11 22.39H357.93H357.94Z" fill="#D99D41"/>
<path d="M386.67 34.96H398.21C399.35 34.96 400.31 34.83 401.09 34.56C401.87 34.29 402.53 33.89 403.06 33.36C403.59 32.83 404.06 32.16 404.46 31.36C404.86 30.56 405.25 29.61 405.63 28.5C405.71 28.2 405.85 27.98 406.06 27.84C406.27 27.71 406.47 27.64 406.66 27.64C407 27.64 407.44 27.75 407.97 27.98C407.63 29.66 407.36 31.32 407.17 32.98C406.98 34.64 406.85 35.96 406.77 36.95C406.73 37.41 406.6 37.72 406.37 37.89C406.14 38.06 405.86 38.15 405.51 38.15C404.79 38.15 403.9 38.09 402.85 37.98C401.8 37.87 400.67 37.81 399.45 37.81H376.78C376.78 37.47 376.86 37.14 377.01 36.84L397.34 3.54H386.72C385.54 3.54 384.56 3.61 383.78 3.74C383 3.87 382.33 4.15 381.78 4.57C381.23 4.99 380.79 5.57 380.47 6.31C380.15 7.05 379.85 8.05 379.59 9.31C379.48 9.88 379.04 10.17 378.28 10.17C378.09 10.17 377.89 10.14 377.68 10.08C377.47 10.02 377.29 9.94 377.14 9.82C377.41 8.14 377.61 6.57 377.74 5.11C377.87 3.64 377.98 2.45 378.05 1.54C378.16 0.78 378.56 0.4 379.25 0.4C380.01 0.4 380.84 0.45 381.73 0.54C382.62 0.63 383.68 0.68 384.9 0.68H407.18C407.18 0.91 407.18 1.12 407.15 1.31C407.13 1.5 407.06 1.67 406.95 1.82L386.67 34.95V34.96Z" fill="#D99D41"/>
</g>
<defs>
<clipPath id="clip0_1_2">
<rect width="407.97" height="38.15" fill="white"/>
</clipPath>
</defs>
</svg>
